<?xml version="1.0" encoding="utf-8"?>
<svg viewBox="0 0 500 120" xmlns="http://www.w3.org/2000/svg">
  <defs>
    <linearGradient id="paint0_linear_120_1360" x1="15" y1="3" x2="15" y2="33" gradientUnits="userSpaceOnUse" gradientTransform="matrix(3.775154, 0, 0, 3.775154, 3.69278, -7.294174)">
      <stop stop-color="#877EFF"/>
      <stop offset="0.4615" stop-color="#685DFF"/>
      <stop offset="1" stop-color="#3121FF"/>
    </linearGradient>
  </defs>
  <text style="fill: white; font-family: Bahnschrift; font-size: 97px; font-weight: 700; white-space: pre;" x="135.123" y="97.634">Net Fam</text>
  <path fill-rule="evenodd" clip-rule="evenodd" d="M 108.769 60.662 C 108.769 87.417 87.077 109.109 60.32 109.109 C 33.565 109.109 11.873 87.417 11.873 60.662 C 11.873 33.902 33.565 12.21 60.32 12.21 C 87.077 12.21 108.769 33.902 108.769 60.662 Z M 116.945 60.662 C 116.945 91.934 91.597 117.29 60.32 117.29 C 29.045 117.29 3.692 91.934 3.692 60.662 C 3.692 29.385 29.045 4.034 60.32 4.034 C 91.597 4.034 116.945 29.385 116.945 60.662 Z M 91.561 35.273 C 91.561 38.508 88.941 41.134 85.706 41.134 C 82.471 41.134 79.848 38.508 79.848 35.273 C 79.848 32.038 82.471 29.418 85.706 29.418 C 88.941 29.418 91.561 32.038 91.561 35.273 Z M 43.285 65.225 C 45.806 74.63 55.475 80.213 64.883 77.695 C 74.29 75.173 79.874 65.502 77.352 56.097 C 74.833 46.689 65.162 41.106 55.754 43.627 C 46.347 46.146 40.768 55.817 43.285 65.225 Z M 35.383 67.34 C 39.075 81.112 53.228 89.286 67 85.594 C 80.772 81.904 88.941 67.751 85.254 53.979 C 81.565 40.207 67.409 32.036 53.637 35.728 C 39.87 39.415 31.696 53.573 35.383 67.34 Z" fill="url(#paint0_linear_120_1360)" style=""/>
</svg>