<?xml version="1.0" encoding="utf-8"?>
<svg viewBox="0 0 500 500" xmlns="http://www.w3.org/2000/svg">
  <path fill-rule="evenodd" clip-rule="evenodd" d="M 248.756 6.962 L 247.457 6.962 C 195.236 6.962 154.322 6.962 122.398 11.261 C 89.718 15.647 63.93 24.818 43.676 45.068 C 23.44 65.309 14.271 91.097 9.882 123.773 C 5.584 155.7 5.584 196.627 5.584 248.835 L 5.584 251.445 C 5.584 303.652 5.584 344.583 9.882 376.507 C 14.271 409.186 23.44 434.974 43.676 455.211 C 63.93 475.448 89.718 484.616 122.398 489.023 C 154.322 493.304 195.236 493.304 247.457 493.304 L 250.053 493.304 C 302.274 493.304 343.188 493.304 375.115 489.023 C 407.808 484.616 433.596 475.448 453.833 455.211 C 474.07 434.974 483.241 409.186 487.627 376.507 C 491.926 344.583 491.926 303.652 491.926 251.445 L 491.926 250.131 C 491.926 240.769 484.326 233.169 474.96 233.169 C 465.597 233.169 457.994 240.769 457.994 250.131 C 457.994 303.941 457.964 342.575 453.997 371.983 C 453.85 373.145 453.682 374.29 453.517 375.405 L 390.768 318.929 C 361.376 292.479 317.611 289.84 285.251 312.582 L 278.507 317.331 C 267.257 325.219 251.967 323.906 242.255 314.181 L 145.214 217.153 C 119.53 191.469 78.331 190.099 51.004 214.017 L 39.546 224.044 C 39.636 183.493 40.224 152.715 43.512 128.3 C 47.387 99.375 54.792 81.942 67.668 69.063 C 80.564 56.167 97.997 48.779 126.905 44.89 C 156.313 40.938 194.964 40.894 248.756 40.894 C 258.119 40.894 265.719 33.308 265.719 23.928 C 265.719 14.562 258.119 6.962 248.756 6.962 Z M 43.512 371.983 C 47.387 400.908 54.792 418.341 67.668 431.22 C 80.564 444.112 97.997 451.5 126.905 455.393 C 156.313 459.342 194.964 459.372 248.756 459.372 C 302.546 459.372 341.196 459.342 370.605 455.393 C 399.513 451.5 416.946 444.112 429.841 431.22 C 435.346 425.716 439.852 419.382 443.503 411.658 C 442.63 411.117 441.783 410.499 440.984 409.774 L 368.069 344.16 C 350.442 328.279 324.173 326.697 304.762 340.345 L 298.022 345.08 C 273.275 362.466 239.632 359.558 218.263 338.172 L 121.219 241.145 C 108.176 228.084 87.23 227.393 73.34 239.546 L 39.529 269.136 C 39.589 313.213 40.026 346.165 43.512 371.983 Z" fill="white" style=""/>
  <path fill-rule="evenodd" clip-rule="evenodd" d="M 381.148 12.358 L 396.514 12.358 C 400.603 12.358 403.92 15.594 403.92 19.592 C 403.92 23.578 400.603 26.82 396.514 26.82 L 381.715 26.82 C 358.241 26.82 341.384 26.839 328.554 28.52 C 315.936 30.182 308.326 33.332 302.705 38.825 C 297.088 44.314 293.861 51.754 292.166 64.081 C 290.441 76.62 290.418 93.086 290.418 116.028 C 290.418 138.964 290.441 155.431 292.166 167.973 C 293.861 180.301 297.088 187.737 302.705 193.229 C 308.326 198.718 315.936 201.869 328.554 203.528 C 341.384 205.213 358.241 205.234 381.715 205.234 C 405.182 205.234 422.042 205.213 434.877 203.528 C 447.489 201.869 455.089 198.718 460.721 193.229 C 466.337 187.737 469.566 180.301 471.265 167.973 C 472.991 155.431 473.003 138.964 473.003 116.028 L 473.003 101.565 C 473.003 97.561 476.324 94.327 480.402 94.327 C 484.491 94.327 487.807 97.561 487.807 101.565 L 487.807 116.58 C 487.807 138.84 487.807 156.286 485.929 169.896 C 484.018 183.832 480.017 194.819 471.185 203.454 C 462.359 212.084 451.107 215.995 436.841 217.868 C 422.914 219.697 405.063 219.697 382.28 219.697 L 381.148 219.697 C 358.361 219.697 340.514 219.697 326.584 217.868 C 312.326 215.995 301.081 212.084 292.242 203.454 C 283.411 194.819 279.408 183.832 277.492 169.896 C 275.619 156.286 275.619 138.84 275.619 116.58 L 275.619 115.475 C 275.619 93.212 275.619 75.769 277.492 62.156 C 279.408 48.219 283.411 37.221 292.242 28.6 C 301.081 19.97 312.326 16.06 326.584 14.181 C 340.514 12.358 358.361 12.358 381.148 12.358 Z M 428.793 22.251 C 442.3 9.061 464.181 9.061 477.682 22.251 C 491.184 35.435 491.184 56.826 477.682 70.023 L 412.071 134.133 C 408.406 137.709 406.107 139.954 403.55 141.912 C 400.53 144.208 397.265 146.184 393.815 147.787 C 390.891 149.156 387.8 150.16 382.887 151.763 L 354.221 161.097 C 348.928 162.822 343.093 161.474 339.152 157.617 C 335.202 153.764 333.829 148.063 335.591 142.887 L 345.143 114.881 C 346.78 110.077 347.81 107.063 349.212 104.203 C 350.855 100.833 352.871 97.634 355.226 94.69 C 357.23 92.19 359.521 89.94 363.188 86.362 L 428.793 22.251 Z M 467.216 32.478 C 459.496 24.933 446.982 24.933 439.262 32.478 L 435.545 36.111 C 435.773 37.031 436.088 38.144 436.522 39.368 C 437.93 43.346 440.617 48.588 445.667 53.538 C 450.714 58.469 456.088 61.09 460.166 62.471 C 461.427 62.895 462.554 63.206 463.497 63.427 L 467.216 59.794 C 474.936 52.253 474.936 40.022 467.216 32.478 Z M 451.831 74.815 C 446.746 72.68 440.81 69.252 435.197 63.763 C 429.583 58.28 426.073 52.481 423.881 47.508 L 373.988 96.26 C 369.889 100.274 368.273 101.871 366.896 103.591 C 365.206 105.697 363.757 107.999 362.571 110.422 C 361.611 112.389 360.877 114.51 359.038 119.9 L 354.782 132.394 L 364.963 142.346 L 377.747 138.183 C 383.27 136.39 385.439 135.669 387.449 134.731 C 389.93 133.575 392.267 132.158 394.446 130.507 C 396.204 129.16 397.833 127.584 401.946 123.573 L 451.831 74.815 Z" fill="white" style=""/>
</svg>